<svg width="860" height="220" viewBox="0 0 860 220" xmlns="http://www.w3.org/2000/svg">
  <rect width="860" height="220" rx="18" fill="#0D1117"/>
  <rect x="18" y="18" width="824" height="184" rx="14" fill="#13141F" stroke="#2A2E45" stroke-width="1.5"/>

  <!-- macOS-style traffic lights -->
  <circle cx="44" cy="42" r="5" fill="#FF5F56"/>
  <circle cx="62" cy="42" r="5" fill="#FFBD2E"/>
  <circle cx="80" cy="42" r="5" fill="#27C93F"/>

  <!-- Webox logo — geometric blocks -->
  <g fill="#7D56F4" opacity="0.15">
    <rect x="68" y="74" width="10" height="10"/><rect x="80" y="74" width="10" height="10"/>
    <rect x="68" y="86" width="10" height="10"/><rect x="80" y="86" width="10" height="10"/>
    <rect x="68" y="98" width="10" height="10"/><rect x="80" y="98" width="10" height="10"/>
  </g>

  <!-- Main title -->
  <text x="430" y="102" text-anchor="middle" font-family="ui-monospace,SFMono-Regular,Menlo,Consolas,monospace" font-size="58" font-weight="800" fill="#7D56F4">WEBOX</text>
  <text x="430" y="138" text-anchor="middle" font-family="ui-monospace,SFMono-Regular,Menlo,Consolas,monospace" font-size="19" fill="#C9D1D9" letter-spacing="1">shared hosting terminal cockpit</text>

  <!-- Bottom tag strip — toolchain flow -->
  <g font-family="ui-monospace,SFMono-Regular,Menlo,Consolas,monospace" font-size="14">
    <text x="64" y="177" fill="#7D56F4" font-weight="600">providers</text>
    <text x="148" y="177" fill="#3D435E">·</text>
    <text x="167" y="177" fill="#8C98C1">ssh</text>
    <text x="197" y="177" fill="#3D435E">·</text>
    <text x="216" y="177" fill="#8C98C1">github actions</text>
    <text x="338" y="177" fill="#3D435E">·</text>
    <text x="357" y="177" fill="#8C98C1">deploy</text>
    <text x="414" y="177" fill="#3D435E">·</text>
    <text x="433" y="177" fill="#04B575" font-weight="600">online</text>
    <text x="643" y="177" fill="#FFB800" font-weight="600">docs-first · pre-mvp</text>
  </g>
</svg>
